<?xml version="1.0" standalone="no"?>
<!DOCTYPE svg PUBLIC "-//W3C//DTD SVG 20010904//EN"
 "http://www.w3.org/TR/2001/REC-SVG-20010904/DTD/svg10.dtd">
<svg version="1.0" xmlns="http://www.w3.org/2000/svg"
 width="217.000000pt" height="217.000000pt" viewBox="0 0 217.000000 217.000000"
 preserveAspectRatio="xMidYMid meet">
<metadata>
Created by potrace 1.11, written by Peter Selinger 2001-2013
</metadata>
<g transform="translate(0.000000,217.000000) scale(0.100000,-0.100000)"
fill="#000000" stroke="none">
<path d="M368 1512 c-11 -2 -19 -19 -24 -55 -4 -29 -8 -54 -9 -57 0 -3 -4 -26
-8 -51 -9 -53 -12 -72 -26 -154 -6 -33 -13 -76 -16 -95 -21 -134 -39 -191 -67
-215 -34 -29 -57 -32 -139 -20 l-47 7 -13 -89 c-8 -48 -14 -92 -14 -97 0 -15
44 -20 170 -20 108 0 125 2 175 25 64 30 105 69 127 119 15 36 47 172 57 245
3 22 10 67 16 100 6 33 13 76 16 95 3 19 9 51 13 70 l7 35 131 3 131 3 -49
-101 c-27 -55 -49 -102 -49 -104 0 -5 -186 -392 -205 -428 -26 -46 -22 -48 88
-48 l103 0 43 88 42 88 109 0 c59 -1 111 -3 113 -6 7 -6 21 -96 26 -157 1 -10
105 -13 486 -13 267 0 485 1 485 3 0 1 5 29 11 62 6 33 13 75 15 93 l6 32
-192 0 -192 0 6 43 c4 23 8 51 10 62 3 11 5 26 5 33 1 9 39 12 156 12 116 0
156 3 159 13 2 6 10 47 18 90 l14 77 -151 0 c-84 0 -154 2 -157 5 -2 3 1 31 7
62 l12 58 184 3 185 2 15 90 c9 50 13 90 10 91 -36 5 -596 2 -609 -3 -9 -4
-14 -7 -11 -7 4 -1 1 -29 -6 -63 -8 -35 -16 -81 -19 -103 -4 -23 -9 -52 -11
-65 -3 -14 -7 -38 -10 -55 -3 -16 -7 -41 -10 -55 -3 -14 -7 -41 -10 -60 -7
-43 -22 -133 -31 -180 -3 -19 -8 -45 -9 -57 -5 -36 -12 -40 -72 -39 l-58 1
-12 65 c-6 36 -15 87 -18 114 -4 27 -9 58 -11 70 -5 22 -23 140 -30 191 -2 17
-9 57 -15 90 -6 33 -13 74 -15 90 -11 78 37 70 -415 70 -222 0 -411 -1 -421
-3z m640 -306 c2 -20 6 -55 10 -79 5 -23 8 -55 8 -72 -1 -29 -2 -29 -58 -30
-32 -1 -62 1 -67 5 -5 3 5 37 23 75 19 39 41 87 51 107 20 45 30 43 33 -6z"/>
</g>
</svg>
